<?xml version="1.0" standalone="no"?>
<!DOCTYPE svg PUBLIC "-//W3C//DTD SVG 20010904//EN"
 "http://www.w3.org/TR/2001/REC-SVG-20010904/DTD/svg10.dtd">
<svg version="1.0" xmlns="http://www.w3.org/2000/svg"
 width="1024.000000pt" height="1024.000000pt" viewBox="0 0 1024.000000 1024.000000"
 preserveAspectRatio="xMidYMid meet">
<metadata>
Created by potrace 1.11, written by Peter Selinger 2001-2013
</metadata>
<g transform="translate(0.000000,1024.000000) scale(0.100000,-0.100000)"
fill="#000000" stroke="none">
<path d="M8920 5898 c-87 -60 -102 -160 -36 -237 92 -105 266 -37 266 104 0
119 -135 197 -230 133z"/>
<path d="M1752 5235 l0 -665 119 0 c88 0 119 3 119 13 0 6 2 136 3 287 3 262
5 278 26 328 65 146 242 177 314 55 26 -45 33 -129 32 -420 l0 -263 121 0 120
0 -1 348 c-1 191 -5 365 -9 387 -16 83 -79 166 -161 211 -41 22 -127 36 -191
31 -73 -7 -135 -32 -205 -82 l-48 -36 0 223 c0 123 0 229 0 236 -1 9 -32 12
-120 12 l-119 0 0 -665z"/>
<path d="M5342 5235 l0 -666 121 3 120 3 1 275 c2 176 7 290 14 316 56 195
292 222 343 40 8 -26 13 -149 14 -336 l2 -295 119 -3 120 -3 -2 363 c-1 352
-2 365 -24 423 -41 105 -144 182 -261 192 -102 10 -199 -21 -296 -94 l-30 -22
-1 212 c0 117 -1 222 -1 235 -1 22 -3 22 -120 22 l-119 0 0 -665z"/>
<path d="M8435 5238 l1 -663 121 -3 121 -3 -1 663 -2 663 -120 3 -120 3 0
-663z"/>
<path d="M4070 5710 l0 -179 -62 -3 -61 -3 0 -85 c1 -47 1 -91 2 -97 1 -9 20
-13 61 -13 l60 0 0 -380 0 -380 120 0 120 0 0 380 0 380 73 0 73 0 -1 100 0
100 -72 0 -73 0 0 180 0 180 -120 0 -120 0 0 -180z"/>
<path d="M55 5848 c3 -13 7 -34 10 -48 3 -14 7 -34 9 -45 3 -11 21 -90 40
-175 20 -85 38 -164 40 -175 2 -11 23 -101 46 -200 22 -99 43 -191 46 -205 3
-13 14 -63 25 -110 11 -47 22 -94 25 -105 2 -11 14 -64 26 -117 l21 -98 117 0
117 0 16 53 c16 52 62 215 156 552 27 99 54 190 58 203 7 17 35 -71 127 -393
l119 -416 120 3 120 3 27 120 c15 66 46 203 69 305 23 102 44 196 47 210 3 14
7 34 9 45 3 11 7 29 9 40 3 11 23 101 45 200 23 99 50 219 61 267 11 48 20 92
20 98 0 6 -46 10 -119 10 -105 0 -120 -2 -125 -17 -5 -17 -23 -95 -32 -138 -2
-11 -25 -112 -50 -225 -25 -113 -47 -212 -49 -220 -2 -8 -13 -61 -26 -118 -12
-56 -23 -101 -25 -99 -3 3 -199 684 -208 722 -2 6 -8 29 -15 53 l-12 42 -103
0 -103 0 -77 -272 c-42 -150 -93 -333 -113 -405 -21 -73 -40 -129 -44 -125 -5
6 -113 467 -126 542 -2 14 -17 77 -32 140 l-27 115 -122 3 -121 3 4 -23z"/>
<path d="M4480 5750 l0 -120 115 0 115 0 0 -530 0 -530 128 0 127 0 -1 530 -1
530 119 0 118 0 0 120 0 120 -360 0 -360 0 0 -120z"/>
<path d="M7620 5220 l0 -650 124 0 125 0 0 268 c0 147 0 279 0 294 l1 28 198
2 197 3 2 118 2 117 -199 0 c-231 0 -207 -16 -202 138 l3 92 199 0 198 0 0
120 0 120 -324 0 -324 0 0 -650z"/>
<path d="M3110 5527 c-75 -27 -125 -60 -179 -117 -172 -179 -178 -514 -13
-702 152 -173 408 -208 580 -78 l52 40 0 -50 0 -50 120 0 c118 0 120 0 121 23
0 12 2 228 2 480 l2 457 -122 0 -123 0 0 -51 0 -51 -37 30 c-112 88 -278 116
-403 69z m304 -222 c67 -32 127 -107 142 -175 13 -62 4 -152 -19 -203 -82
-179 -312 -210 -437 -60 -63 77 -78 229 -31 320 26 52 101 118 149 132 51 14
151 7 196 -14z"/>
<path d="M6790 5543 c-233 -39 -401 -246 -401 -493 1 -144 41 -255 127 -345
101 -104 235 -157 393 -154 107 2 161 14 241 52 69 32 190 141 174 156 -5 5
-50 28 -101 51 l-92 42 -33 -23 c-64 -47 -110 -62 -195 -65 -75 -2 -89 0 -143
27 -69 35 -116 91 -134 162 l-6 27 389 0 388 0 -2 69 c-9 249 -151 433 -377
486 -59 14 -171 18 -228 8z m193 -217 c58 -17 129 -72 153 -118 9 -16 14 -32
11 -34 -2 -2 -120 -3 -261 -2 l-257 3 32 46 c18 25 47 56 65 68 68 47 172 62
257 37z"/>
<path d="M8875 5050 l0 -480 122 0 121 0 0 480 0 480 -122 0 -121 0 0 -480z"/>
<path d="M9256 5518 c4 -7 76 -108 161 -225 84 -116 153 -214 153 -217 0 -3
-51 -75 -112 -161 -62 -86 -128 -177 -146 -203 -17 -26 -38 -54 -45 -63 -6 -8
-22 -30 -35 -47 l-23 -32 138 0 138 0 51 68 c28 37 79 106 113 155 34 48 64
87 65 87 2 0 44 -57 94 -127 51 -71 102 -141 114 -156 l23 -28 138 3 137 3
-181 248 c-99 137 -178 254 -176 261 3 7 65 96 139 197 73 101 144 199 156
217 l23 32 -138 0 -139 0 -94 -130 c-52 -71 -94 -130 -95 -130 -1 0 -43 59
-95 130 l-94 130 -138 0 c-109 0 -138 -3 -132 -12z"/>
</g>
</svg>
